<svg xmlns="http://www.w3.org/2000/svg" viewBox="0 0 512 512">
  <defs>
    <linearGradient id="settingsGradient" x1="0%" y1="0%" x2="100%" y2="100%">
      <stop offset="0%" style="stop-color:#6366f1;stop-opacity:1" />
      <stop offset="50%" style="stop-color:#8b5cf6;stop-opacity:1" />
      <stop offset="100%" style="stop-color:#ec4899;stop-opacity:1" />
    </linearGradient>
  </defs>
  <circle cx="256" cy="256" r="32" fill="none" stroke="url(#settingsGradient)" stroke-miterlimit="10" stroke-width="32"/>
  <path d="M416 256c0-17.4-1.9-34.3-5.5-50.6l-45.1-29.6a8.07 8.07 0 00-9.1 1.7l-20.8 20.8a8.07 8.07 0 01-11.3 0l-16.2-16.2a8.07 8.07 0 010-11.3l20.8-20.8a8.07 8.07 0 001.7-9.1l-29.6-45.1C300.3 97.9 283.4 96 266 96s-34.3 1.9-50.6 5.5l-29.6 45.1a8.07 8.07 0 01-9.1 1.7l-20.8-20.8a8.07 8.07 0 00-11.3 0l-16.2 16.2a8.07 8.07 0 000 11.3l-20.8 20.8a8.07 8.07 0 00-1.7 9.1l-45.1 29.6C97.9 221.7 96 238.6 96 256s1.9 34.3 5.5 50.6l45.1 29.6a8.07 8.07 0 011.7 9.1l-20.8 20.8a8.07 8.07 0 000 11.3l16.2 16.2a8.07 8.07 0 0011.3 0l20.8-20.8a8.07 8.07 0 019.1-1.7l29.6 45.1c16.3 3.6 33.2 5.5 50.6 5.5s34.3-1.9 50.6-5.5l29.6-45.1a8.07 8.07 0 019.1 1.7l20.8 20.8a8.07 8.07 0 0011.3 0l16.2-16.2a8.07 8.07 0 000-11.3l-20.8-20.8a8.07 8.07 0 00-1.7-9.1l45.1-29.6c3.6-16.3 5.5-33.2 5.5-50.6z" fill="none" stroke="url(#settingsGradient)" stroke-linecap="round" stroke-linejoin="round" stroke-width="32"/>
</svg>



